<mxfile host="app.diagrams.net" modified="2024-04-25T11:54:33.127Z" agent="Mozilla/5.0 (X11; Linux x86_64) AppleWebKit/537.36 (KHTML, like Gecko) Chrome/123.0.0.0 Safari/537.36" etag="nzoWVqhTEwdZxwL02dFZ" version="24.3.0" type="github">
  <diagram name="Page-1" id="ebAc7KdRLzZnIXRDiRHe">
    <mxGraphModel dx="1196" dy="1805" grid="1" gridSize="10" guides="1" tooltips="1" connect="1" arrows="1" fold="1" page="1" pageScale="1" pageWidth="850" pageHeight="1100" math="0" shadow="0">
      <root>
        <mxCell id="0" />
        <mxCell id="1" parent="0" />
        <mxCell id="bp_G9P9DdoP45wU-zxYd-1" style="edgeStyle=orthogonalEdgeStyle;rounded=0;orthogonalLoop=1;jettySize=auto;html=1;exitX=1;exitY=0.25;exitDx=0;exitDy=0;strokeWidth=4;" edge="1" parent="1" source="bp_G9P9DdoP45wU-zxYd-3">
          <mxGeometry relative="1" as="geometry">
            <mxPoint x="460" y="112.5" as="targetPoint" />
          </mxGeometry>
        </mxCell>
        <mxCell id="bp_G9P9DdoP45wU-zxYd-2" style="edgeStyle=orthogonalEdgeStyle;rounded=0;orthogonalLoop=1;jettySize=auto;html=1;exitX=1;exitY=0.75;exitDx=0;exitDy=0;strokeWidth=4;" edge="1" parent="1" source="bp_G9P9DdoP45wU-zxYd-3">
          <mxGeometry relative="1" as="geometry">
            <mxPoint x="460" y="197.5" as="targetPoint" />
          </mxGeometry>
        </mxCell>
        <mxCell id="bp_G9P9DdoP45wU-zxYd-3" value="BiLSTM" style="rounded=1;whiteSpace=wrap;html=1;fillColor=#d5e8d4;strokeColor=#82b366;strokeWidth=4;fontSize=36;fontStyle=1" vertex="1" parent="1">
          <mxGeometry x="190" y="70" width="200" height="170" as="geometry" />
        </mxCell>
        <mxCell id="bp_G9P9DdoP45wU-zxYd-4" style="edgeStyle=orthogonalEdgeStyle;rounded=0;orthogonalLoop=1;jettySize=auto;html=1;entryX=0;entryY=0.75;entryDx=0;entryDy=0;strokeWidth=4;" edge="1" parent="1" source="bp_G9P9DdoP45wU-zxYd-5" target="bp_G9P9DdoP45wU-zxYd-3">
          <mxGeometry relative="1" as="geometry" />
        </mxCell>
        <mxCell id="bp_G9P9DdoP45wU-zxYd-5" value="c&lt;sup&gt;(0)&lt;/sup&gt;&lt;sub&gt;F&lt;/sub&gt;" style="text;html=1;align=center;verticalAlign=middle;whiteSpace=wrap;rounded=0;fontSize=36;" vertex="1" parent="1">
          <mxGeometry x="60" y="183" width="60" height="30" as="geometry" />
        </mxCell>
        <mxCell id="bp_G9P9DdoP45wU-zxYd-6" style="edgeStyle=orthogonalEdgeStyle;rounded=0;orthogonalLoop=1;jettySize=auto;html=1;entryX=0;entryY=0.25;entryDx=0;entryDy=0;strokeWidth=4;" edge="1" parent="1" source="bp_G9P9DdoP45wU-zxYd-7" target="bp_G9P9DdoP45wU-zxYd-3">
          <mxGeometry relative="1" as="geometry" />
        </mxCell>
        <mxCell id="bp_G9P9DdoP45wU-zxYd-7" value="h&lt;sup&gt;(0)&lt;/sup&gt;&lt;sub&gt;F&lt;/sub&gt;" style="text;html=1;align=center;verticalAlign=middle;whiteSpace=wrap;rounded=0;fontSize=36;" vertex="1" parent="1">
          <mxGeometry x="57" y="98" width="60" height="30" as="geometry" />
        </mxCell>
        <mxCell id="bp_G9P9DdoP45wU-zxYd-8" style="edgeStyle=orthogonalEdgeStyle;rounded=0;orthogonalLoop=1;jettySize=auto;html=1;entryX=0.5;entryY=1;entryDx=0;entryDy=0;strokeWidth=4;" edge="1" parent="1" source="bp_G9P9DdoP45wU-zxYd-9" target="bp_G9P9DdoP45wU-zxYd-3">
          <mxGeometry relative="1" as="geometry" />
        </mxCell>
        <mxCell id="bp_G9P9DdoP45wU-zxYd-9" value="x&lt;sup&gt;(1)&lt;/sup&gt;" style="text;html=1;align=center;verticalAlign=middle;whiteSpace=wrap;rounded=0;fontSize=36;strokeWidth=3;" vertex="1" parent="1">
          <mxGeometry x="260" y="310" width="60" height="30" as="geometry" />
        </mxCell>
        <mxCell id="bp_G9P9DdoP45wU-zxYd-10" style="edgeStyle=orthogonalEdgeStyle;rounded=0;orthogonalLoop=1;jettySize=auto;html=1;exitX=1;exitY=0.5;exitDx=0;exitDy=0;entryX=0;entryY=0.75;entryDx=0;entryDy=0;strokeWidth=4;" edge="1" parent="1" target="bp_G9P9DdoP45wU-zxYd-14">
          <mxGeometry relative="1" as="geometry">
            <mxPoint x="542" y="197.5" as="sourcePoint" />
          </mxGeometry>
        </mxCell>
        <mxCell id="bp_G9P9DdoP45wU-zxYd-11" style="edgeStyle=orthogonalEdgeStyle;rounded=0;orthogonalLoop=1;jettySize=auto;html=1;exitX=1;exitY=0.5;exitDx=0;exitDy=0;entryX=0;entryY=0.25;entryDx=0;entryDy=0;strokeWidth=4;" edge="1" parent="1" target="bp_G9P9DdoP45wU-zxYd-14">
          <mxGeometry relative="1" as="geometry">
            <mxPoint x="542" y="112.5" as="sourcePoint" />
          </mxGeometry>
        </mxCell>
        <mxCell id="bp_G9P9DdoP45wU-zxYd-12" style="edgeStyle=orthogonalEdgeStyle;rounded=0;orthogonalLoop=1;jettySize=auto;html=1;exitX=1;exitY=0.25;exitDx=0;exitDy=0;strokeWidth=4;" edge="1" parent="1" source="bp_G9P9DdoP45wU-zxYd-14">
          <mxGeometry relative="1" as="geometry">
            <mxPoint x="892" y="112.5" as="targetPoint" />
          </mxGeometry>
        </mxCell>
        <mxCell id="bp_G9P9DdoP45wU-zxYd-13" style="edgeStyle=orthogonalEdgeStyle;rounded=0;orthogonalLoop=1;jettySize=auto;html=1;exitX=1;exitY=0.75;exitDx=0;exitDy=0;strokeWidth=4;" edge="1" parent="1" source="bp_G9P9DdoP45wU-zxYd-14">
          <mxGeometry relative="1" as="geometry">
            <mxPoint x="892" y="197.5" as="targetPoint" />
          </mxGeometry>
        </mxCell>
        <mxCell id="bp_G9P9DdoP45wU-zxYd-14" value="BiLSTM" style="rounded=1;whiteSpace=wrap;html=1;fillColor=#d5e8d4;strokeColor=#82b366;strokeWidth=4;fontSize=36;fontStyle=1" vertex="1" parent="1">
          <mxGeometry x="622" y="70" width="200" height="170" as="geometry" />
        </mxCell>
        <mxCell id="bp_G9P9DdoP45wU-zxYd-15" style="edgeStyle=orthogonalEdgeStyle;rounded=0;orthogonalLoop=1;jettySize=auto;html=1;entryX=0.5;entryY=1;entryDx=0;entryDy=0;strokeWidth=4;" edge="1" parent="1" target="bp_G9P9DdoP45wU-zxYd-14">
          <mxGeometry relative="1" as="geometry">
            <mxPoint x="722" y="310" as="sourcePoint" />
          </mxGeometry>
        </mxCell>
        <mxCell id="bp_G9P9DdoP45wU-zxYd-16" style="edgeStyle=orthogonalEdgeStyle;rounded=0;orthogonalLoop=1;jettySize=auto;html=1;exitX=1;exitY=0.5;exitDx=0;exitDy=0;entryX=0;entryY=0.75;entryDx=0;entryDy=0;strokeWidth=4;" edge="1" parent="1" target="bp_G9P9DdoP45wU-zxYd-21">
          <mxGeometry relative="1" as="geometry">
            <mxPoint x="1032" y="197.5" as="sourcePoint" />
          </mxGeometry>
        </mxCell>
        <mxCell id="bp_G9P9DdoP45wU-zxYd-17" style="edgeStyle=orthogonalEdgeStyle;rounded=0;orthogonalLoop=1;jettySize=auto;html=1;exitX=1;exitY=0.5;exitDx=0;exitDy=0;entryX=0;entryY=0.25;entryDx=0;entryDy=0;strokeWidth=4;" edge="1" parent="1" target="bp_G9P9DdoP45wU-zxYd-21">
          <mxGeometry relative="1" as="geometry">
            <mxPoint x="1032" y="112.5" as="sourcePoint" />
          </mxGeometry>
        </mxCell>
        <mxCell id="bp_G9P9DdoP45wU-zxYd-18" style="edgeStyle=orthogonalEdgeStyle;rounded=0;orthogonalLoop=1;jettySize=auto;html=1;strokeWidth=4;" edge="1" parent="1" source="bp_G9P9DdoP45wU-zxYd-21" target="bp_G9P9DdoP45wU-zxYd-22">
          <mxGeometry relative="1" as="geometry" />
        </mxCell>
        <mxCell id="bp_G9P9DdoP45wU-zxYd-19" style="edgeStyle=orthogonalEdgeStyle;rounded=0;orthogonalLoop=1;jettySize=auto;html=1;exitX=1;exitY=0.25;exitDx=0;exitDy=0;strokeWidth=4;" edge="1" parent="1" source="bp_G9P9DdoP45wU-zxYd-21">
          <mxGeometry relative="1" as="geometry">
            <mxPoint x="1362" y="112.5" as="targetPoint" />
          </mxGeometry>
        </mxCell>
        <mxCell id="bp_G9P9DdoP45wU-zxYd-20" style="edgeStyle=orthogonalEdgeStyle;rounded=0;orthogonalLoop=1;jettySize=auto;html=1;exitX=1;exitY=0.75;exitDx=0;exitDy=0;strokeWidth=4;entryX=0;entryY=0.5;entryDx=0;entryDy=0;" edge="1" parent="1" source="bp_G9P9DdoP45wU-zxYd-21" target="bp_G9P9DdoP45wU-zxYd-42">
          <mxGeometry relative="1" as="geometry">
            <mxPoint x="1362" y="198" as="targetPoint" />
          </mxGeometry>
        </mxCell>
        <mxCell id="bp_G9P9DdoP45wU-zxYd-21" value="BiLSTM" style="rounded=1;whiteSpace=wrap;html=1;fillColor=#d5e8d4;strokeColor=#82b366;strokeWidth=4;fontSize=36;fontStyle=1" vertex="1" parent="1">
          <mxGeometry x="1092" y="70" width="200" height="170" as="geometry" />
        </mxCell>
        <mxCell id="bp_G9P9DdoP45wU-zxYd-22" value="y&lt;sub&gt;M&lt;/sub&gt;" style="text;html=1;align=center;verticalAlign=middle;whiteSpace=wrap;rounded=0;fontSize=36;" vertex="1" parent="1">
          <mxGeometry x="1162" y="-30" width="60" height="30" as="geometry" />
        </mxCell>
        <mxCell id="bp_G9P9DdoP45wU-zxYd-23" style="edgeStyle=orthogonalEdgeStyle;rounded=0;orthogonalLoop=1;jettySize=auto;html=1;entryX=0.5;entryY=1;entryDx=0;entryDy=0;strokeWidth=4;" edge="1" parent="1" source="bp_G9P9DdoP45wU-zxYd-24" target="bp_G9P9DdoP45wU-zxYd-21">
          <mxGeometry relative="1" as="geometry" />
        </mxCell>
        <mxCell id="bp_G9P9DdoP45wU-zxYd-24" value="x&lt;sup&gt;(M)&lt;/sup&gt;" style="text;html=1;align=center;verticalAlign=middle;whiteSpace=wrap;rounded=0;fontSize=36;strokeWidth=3;" vertex="1" parent="1">
          <mxGeometry x="1162" y="310" width="60" height="30" as="geometry" />
        </mxCell>
        <mxCell id="bp_G9P9DdoP45wU-zxYd-25" value="..." style="text;html=1;align=center;verticalAlign=middle;whiteSpace=wrap;rounded=0;fontSize=48;" vertex="1" parent="1">
          <mxGeometry x="952" y="90" width="60" height="30" as="geometry" />
        </mxCell>
        <mxCell id="bp_G9P9DdoP45wU-zxYd-26" value="..." style="text;html=1;align=center;verticalAlign=middle;whiteSpace=wrap;rounded=0;fontSize=48;" vertex="1" parent="1">
          <mxGeometry x="952" y="170" width="60" height="30" as="geometry" />
        </mxCell>
        <mxCell id="bp_G9P9DdoP45wU-zxYd-27" value="" style="shape=curlyBracket;whiteSpace=wrap;html=1;rounded=1;labelPosition=left;verticalLabelPosition=middle;align=right;verticalAlign=middle;strokeWidth=3;" vertex="1" parent="1">
          <mxGeometry x="1242" y="-87.5" width="20" height="145" as="geometry" />
        </mxCell>
        <mxCell id="bp_G9P9DdoP45wU-zxYd-28" value="&lt;div style=&quot;font-size: 28px;&quot;&gt;categoria 1&lt;/div&gt;&lt;div style=&quot;font-size: 28px;&quot;&gt;categoria 2&lt;/div&gt;&lt;div style=&quot;font-size: 28px;&quot;&gt;categoria 3&lt;/div&gt;&lt;div style=&quot;font-size: 28px;&quot;&gt;categoria 4&lt;/div&gt;" style="text;html=1;align=left;verticalAlign=middle;whiteSpace=wrap;rounded=0;fontSize=28;" vertex="1" parent="1">
          <mxGeometry x="1262" y="-30" width="180" height="30" as="geometry" />
        </mxCell>
        <mxCell id="bp_G9P9DdoP45wU-zxYd-29" value="hidden_dim" style="text;html=1;align=center;verticalAlign=middle;whiteSpace=wrap;rounded=0;fontSize=20;fontStyle=2;fontColor=#FF3333;" vertex="1" parent="1">
          <mxGeometry x="460" y="40" width="60" height="30" as="geometry" />
        </mxCell>
        <mxCell id="bp_G9P9DdoP45wU-zxYd-30" value="embedding_dim" style="text;html=1;align=center;verticalAlign=middle;whiteSpace=wrap;rounded=0;fontSize=20;fontStyle=2;fontColor=#FF3333;" vertex="1" parent="1">
          <mxGeometry x="365" y="310" width="60" height="30" as="geometry" />
        </mxCell>
        <mxCell id="bp_G9P9DdoP45wU-zxYd-31" value="output_dim" style="text;html=1;align=center;verticalAlign=middle;whiteSpace=wrap;rounded=0;fontSize=20;fontStyle=2;fontColor=#FF3333;" vertex="1" parent="1">
          <mxGeometry x="1067" y="-30" width="60" height="30" as="geometry" />
        </mxCell>
        <mxCell id="bp_G9P9DdoP45wU-zxYd-32" value="Dimensão da Estrutura:" style="text;html=1;align=center;verticalAlign=middle;whiteSpace=wrap;rounded=0;fontSize=20;fontColor=#FF3333;" vertex="1" parent="1">
          <mxGeometry x="425" width="130" height="30" as="geometry" />
        </mxCell>
        <mxCell id="bp_G9P9DdoP45wU-zxYd-33" value="Dimensão da Estrutura:" style="text;html=1;align=center;verticalAlign=middle;whiteSpace=wrap;rounded=0;fontSize=20;fontColor=#FF3333;" vertex="1" parent="1">
          <mxGeometry x="330" y="270" width="130" height="30" as="geometry" />
        </mxCell>
        <mxCell id="bp_G9P9DdoP45wU-zxYd-34" value="Dimensão da Estrutura:" style="text;html=1;align=center;verticalAlign=middle;whiteSpace=wrap;rounded=0;fontSize=20;fontColor=#FF3333;" vertex="1" parent="1">
          <mxGeometry x="1032" y="-70" width="130" height="30" as="geometry" />
        </mxCell>
        <mxCell id="bp_G9P9DdoP45wU-zxYd-35" value="num_classes = 4" style="text;html=1;align=center;verticalAlign=middle;whiteSpace=wrap;rounded=0;fontSize=20;fontStyle=2;fontColor=#FF3333;" vertex="1" parent="1">
          <mxGeometry x="1242" y="-130" width="180" height="30" as="geometry" />
        </mxCell>
        <mxCell id="bp_G9P9DdoP45wU-zxYd-36" value="x&lt;sup&gt;(2)&lt;/sup&gt;" style="text;html=1;align=center;verticalAlign=middle;whiteSpace=wrap;rounded=0;fontSize=36;strokeWidth=3;" vertex="1" parent="1">
          <mxGeometry x="702" y="310" width="60" height="30" as="geometry" />
        </mxCell>
        <mxCell id="bp_G9P9DdoP45wU-zxYd-37" value="h&lt;sup&gt;(1)&lt;/sup&gt;&lt;sub&gt;F&lt;/sub&gt;" style="text;html=1;align=center;verticalAlign=middle;whiteSpace=wrap;rounded=0;fontSize=36;" vertex="1" parent="1">
          <mxGeometry x="470" y="90" width="60" height="30" as="geometry" />
        </mxCell>
        <mxCell id="bp_G9P9DdoP45wU-zxYd-38" value="c&lt;sup&gt;(1)&lt;/sup&gt;&lt;sub&gt;F&lt;/sub&gt;" style="text;html=1;align=center;verticalAlign=middle;whiteSpace=wrap;rounded=0;fontSize=36;" vertex="1" parent="1">
          <mxGeometry x="470" y="180" width="60" height="30" as="geometry" />
        </mxCell>
        <mxCell id="bp_G9P9DdoP45wU-zxYd-39" value="h&lt;sup&gt;(2)&lt;/sup&gt;&lt;sub&gt;F&lt;/sub&gt;" style="text;html=1;align=center;verticalAlign=middle;whiteSpace=wrap;rounded=0;fontSize=36;" vertex="1" parent="1">
          <mxGeometry x="900" y="90" width="60" height="30" as="geometry" />
        </mxCell>
        <mxCell id="bp_G9P9DdoP45wU-zxYd-40" value="c&lt;sup&gt;(2)&lt;/sup&gt;&lt;sub&gt;F&lt;/sub&gt;" style="text;html=1;align=center;verticalAlign=middle;whiteSpace=wrap;rounded=0;fontSize=36;" vertex="1" parent="1">
          <mxGeometry x="900" y="170" width="60" height="30" as="geometry" />
        </mxCell>
        <mxCell id="bp_G9P9DdoP45wU-zxYd-41" value="h&lt;sup&gt;(M)&lt;/sup&gt;&lt;sub&gt;F&lt;/sub&gt;" style="text;html=1;align=center;verticalAlign=middle;whiteSpace=wrap;rounded=0;fontSize=36;" vertex="1" parent="1">
          <mxGeometry x="1380" y="90" width="60" height="30" as="geometry" />
        </mxCell>
        <mxCell id="bp_G9P9DdoP45wU-zxYd-42" value="c&lt;sup&gt;(M)&lt;/sup&gt;&lt;sub&gt;F&lt;/sub&gt;" style="text;html=1;align=center;verticalAlign=middle;whiteSpace=wrap;rounded=0;fontSize=36;" vertex="1" parent="1">
          <mxGeometry x="1380" y="183" width="60" height="30" as="geometry" />
        </mxCell>
      </root>
    </mxGraphModel>
  </diagram>
</mxfile>
